name C:\Users\r0593348\3dpredictsim\Results\Batchsim_tmt_linear\Pog_s1_tmt_bCst_d02_k1000_ig24_act.mot
datacolumns 128
datarows 4
range 1.84819742 1.88516137
endheader
time	pelvis_tilt	pelvis_list	pelvis_rotation	pelvis_tx	pelvis_ty	pelvis_tz	hip_flexion_l	hip_adduction_l	hip_rotation_l	hip_flexion_r	hip_adduction_r	hip_rotation_r	knee_angle_l	knee_angle_r	ankle_angle_l	ankle_angle_r	subtalar_angle_l	subtalar_angle_r	tmt_angle_l	tmt_angle_r	mtp_angle_l	mtp_angle_r	lumbar_extension	lumbar_bending	lumbar_rotation	arm_flex_l	arm_add_l	arm_rot_l	arm_flex_r	arm_add_r	arm_rot_r	elbow_flex_l	elbow_flex_r	pro_sup_l	pro_sup_r	glut_med1_l/activation	glut_med2_l/activation	glut_med3_l/activation	glut_min1_l/activation	glut_min2_l/activation	glut_min3_l/activation	semimem_l/activation	semiten_l/activation	bifemlh_l/activation	bifemsh_l/activation	sar_l/activation	add_long_l/activation	add_brev_l/activation	add_mag1_l/activation	add_mag2_l/activation	add_mag3_l/activation	tfl_l/activation	pect_l/activation	grac_l/activation	glut_max1_l/activation	glut_max2_l/activation	glut_max3_l/activation	iliacus_l/activation	psoas_l/activation	quad_fem_l/activation	gem_l/activation	peri_l/activation	rect_fem_l/activation	vas_med_l/activation	vas_int_l/activation	vas_lat_l/activation	med_gas_l/activation	lat_gas_l/activation	soleus_l/activation	tib_post_l/activation	flex_dig_l/activation	flex_hal_l/activation	tib_ant_l/activation	per_brev_l/activation	per_long_l/activation	per_tert_l/activation	ext_dig_l/activation	ext_hal_l/activation	ercspn_l/activation	intobl_l/activation	extobl_l/activation	glut_med1_r/activation	glut_med2_r/activation	glut_med3_r/activation	glut_min1_r/activation	glut_min2_r/activation	glut_min3_r/activation	semimem_r/activation	semiten_r/activation	bifemlh_r/activation	bifemsh_r/activation	sar_r/activation	add_long_r/activation	add_brev_r/activation	add_mag1_r/activation	add_mag2_r/activation	add_mag3_r/activation	tfl_r/activation	pect_r/activation	grac_r/activation	glut_max1_r/activation	glut_max2_r/activation	glut_max3_r/activation	iliacus_r/activation	psoas_r/activation	quad_fem_r/activation	gem_r/activation	peri_r/activation	rect_fem_r/activation	vas_med_r/activation	vas_int_r/activation	vas_lat_r/activation	med_gas_r/activation	lat_gas_r/activation	soleus_r/activation	tib_post_r/activation	flex_dig_r/activation	flex_hal_r/activation	tib_ant_r/activation	per_brev_r/activation	per_long_r/activation	per_tert_r/activation	ext_dig_r/activation	ext_hal_r/activation	ercspn_r/activation	intobl_r/activation	extobl_r/activation	
          1.84819742	         -2.93006293	          1.42370032	         -8.07008217	          2.31024678	          0.85617348	          0.00264019	         33.20283048	          0.97949932	         -0.63592114	        -16.19281444	         -2.25404210	          7.77655773	        -15.82122777	        -15.91575319	          9.53040978	         -7.79537446	         -0.88071786	         13.24210680	          0.02355557	          1.01209477	         -0.09299417	         29.74993658	         -0.56158207	          0.94778622	          3.08758266	         -9.72589051	        -13.62256055	         14.61957975	          4.46888170	        -13.50120001	         18.86422434	         14.32034102	         41.84724293	         86.51662706	         86.51662706	          0.05000062	          0.05000028	          0.05000142	          0.05000028	          0.05000035	          0.05000108	          0.16521092	          0.06026804	          0.13047289	          0.05000203	          0.05000605	          0.06267976	          0.08840307	          0.19266896	          0.14859272	          0.11830287	          0.05000439	          0.06022161	          0.06026870	          0.05000068	          0.05002198	          0.09835519	          0.06026717	          0.06043684	          0.16643071	          0.05000371	          0.05000143	          0.05000050	          0.09728013	          0.10359126	          0.09000169	          0.06026776	          0.06026777	          0.06026775	          0.05000009	          0.05000083	          0.05000367	          0.52055396	          0.35050760	          0.20833046	          0.13449489	          0.56920583	          0.35266120	          0.05181141	          0.13647626	          0.11228276	          0.17189477	          0.08071659	          0.07071460	          0.20826579	          0.12722342	          0.08073791	          0.05000212	          0.05000028	          0.05000025	          0.05000201	          0.10218011	          0.05000078	          0.05000024	          0.05000027	          0.05000052	          0.05000043	          0.18143791	          0.05000269	          0.05000069	          0.05000520	          0.05000215	          0.05000073	          0.41137665	          0.57851263	          0.05000033	          0.05000135	          0.06327393	          0.22278724	          0.10413114	          0.09980478	          0.09490289	          0.15483138	          0.23969796	          0.05978685	          0.17078035	          0.20271377	          0.21907067	          0.05000002	          0.30796435	          0.32114609	          0.05000008	          0.19817543	          0.05000012	          0.05000001	          0.05000003	          0.05000006	
          1.86051874	         -2.92794333	          1.36642878	         -8.25927104	          2.33009811	          0.85480834	          0.00229444	         32.53040565	          1.23340769	         -0.43737526	        -16.50542433	         -2.49487550	          7.55771933	        -15.83190212	        -17.01466636	          8.91043533	        -10.64448396	         -1.26651383	         13.69331646	          0.03956639	          0.93536164	         -0.08944545	         31.29050214	         -0.30300270	          0.79534737	          3.18605374	        -11.19248281	        -13.61704361	         14.48448823	          3.96841243	        -13.55984437	         19.04644377	         14.38764073	         43.14918798	         86.51662706	         86.51662706	          0.07404080	          0.07488359	          0.05000045	          0.06026814	          0.06026751	          0.05000402	          0.13706417	          0.05000038	          0.10824440	          0.05000026	          0.05000177	          0.05200123	          0.07334204	          0.20025281	          0.20028325	          0.13408781	          0.05000070	          0.05000137	          0.05000109	          0.06026771	          0.09087398	          0.11420411	          0.05000036	          0.05014055	          0.38094075	          0.06026903	          0.06361785	          0.07264401	          0.22515654	          0.22504642	          0.19982255	          0.05000001	          0.05000002	          0.05000000	          0.05000016	          0.07264292	          0.05000096	          0.68447936	          0.37912855	          0.23214246	          0.52481851	          0.63978410	          0.44136442	          0.05000001	          0.11322494	          0.09315326	          0.14260933	          0.06696514	          0.06026872	          0.17278391	          0.10554858	          0.06698290	          0.05000271	          0.05000019	          0.05000027	          0.05000030	          0.08477208	          0.12966166	          0.14469156	          0.09944417	          0.05003786	          0.05000128	          0.15052657	          0.08218769	          0.05143557	          0.05000789	          0.05000495	          0.05000501	          0.34129083	          0.47995204	          0.07264410	          0.06090505	          0.06026800	          0.18483119	          0.09793663	          0.12718001	          0.10824829	          0.12845290	          0.19886085	          0.05000001	          0.14168467	          0.16817766	          0.18174783	          0.20994866	          0.31936494	          0.29932918	          0.47842790	          0.37252021	          0.11507229	          0.05451364	          0.06579003	          0.05685442	
          1.87284005	         -2.91991970	          1.31173786	         -8.40991493	          2.35016136	          0.85315692	          0.00196624	         31.73428641	          1.47859155	         -0.17777633	        -16.62846091	         -2.69640316	          7.34193645	        -16.49673363	        -18.47012018	          8.19077657	        -13.28186492	         -1.67128797	         14.10205443	         -0.03600752	          0.77897760	         -0.15615312	         32.04038836	         -0.03643280	          0.62454705	          3.26757621	        -12.64092519	        -13.61708615	         14.40064173	          3.39663046	        -13.62873320	         19.15846495	         14.43116146	         44.43443023	         86.51662706	         86.51662706	          0.24050655	          0.22760912	          0.40626116	          0.05000060	          0.05000029	          0.32960706	          0.12006779	          0.05000111	          0.10560992	          0.05000016	          0.05000042	          0.07264474	          0.18307727	          0.24020521	          0.22181195	          0.16334562	          0.05000028	          0.06107718	          0.12721000	          0.05000019	          0.17254873	          0.17269925	          0.05343552	          0.05000044	          0.31604040	          0.05000149	          0.27448631	          0.06026773	          0.18679692	          0.18670559	          0.16577906	          0.06026773	          0.06026774	          0.06026775	          0.06026766	          0.06026723	          0.06026775	          0.57511499	          0.35936016	          0.19259276	          0.43540648	          0.65472234	          0.36617039	          0.05544806	          0.09720578	          0.07728283	          0.13219296	          0.05555646	          0.05000086	          0.14334718	          0.08756646	          0.05557118	          0.05000686	          0.06026792	          0.06026799	          0.05000049	          0.07032984	          0.17175976	          0.27196017	          0.13443264	          0.06325996	          0.11407333	          0.12488155	          0.06821023	          0.05685557	          0.05002057	          0.05002399	          0.06024683	          0.28314547	          0.39818318	          0.06026791	          0.05052912	          0.05000024	          0.15334168	          0.08125132	          0.10551253	          0.08980617	          0.10656850	          0.16498112	          0.05000002	          0.11754599	          0.13952543	          0.15078365	          0.41659708	          0.42116080	          0.31637454	          0.71364546	          0.50884283	          0.30168521	          0.07631516	          0.05458147	          0.05000014	
          1.88516137	         -2.90892239	          1.26124153	         -8.51531224	          2.37008963	          0.85128901	          0.00164249	         30.85131220	          1.71803770	          0.10635925	        -16.51993358	         -2.85459203	          7.14272947	        -17.27129613	        -20.34205882	          7.67974605	        -15.35089071	         -2.08726931	         14.46363560	         -0.01884038	          0.58186299	         -0.16191968	         31.20842048	          0.20863932	          0.43452864	          3.32977176	        -13.99241921	        -13.62519624	         14.42504821	          2.80731114	        -13.69771520	         19.19925833	         14.39943728	         45.67640146	         86.51662706	         86.51662706	          0.31266635	          0.38972772	          0.48231049	          0.16452668	          0.22695718	          0.27345292	          0.09961197	          0.09284321	          0.08761731	          0.07264385	          0.05000090	          0.06026836	          0.15188659	          0.19928197	          0.21501989	          0.17599096	          0.05000023	          0.05067181	          0.10553764	          0.26787609	          0.23337117	          0.19820009	          0.05000006	          0.05000008	          0.26219718	          0.07262972	          0.22772280	          0.05000003	          0.15497300	          0.23116362	          0.19713517	          0.05000001	          0.05000003	          0.05000000	          0.05000000	          0.05000023	          0.05000016	          0.73042714	          0.39804828	          0.19844757	          0.69002574	          0.74689826	          0.54022078	          0.06565808	          0.08064498	          0.06411623	          0.25576676	          0.05000020	          0.05000009	          0.17345062	          0.07264796	          0.05000082	          0.05000589	          0.05000039	          0.05000056	          0.05000033	          0.05834858	          0.14249740	          0.22563059	          0.11152991	          0.05248369	          0.09463908	          0.10360569	          0.06023575	          0.05000085	          0.05000134	          0.05000091	          0.05000066	          0.23490628	          0.38835257	          0.05000022	          0.05000065	          0.05000053	          0.12721701	          0.06740887	          0.08756110	          0.08756130	          0.08841253	          0.13687345	          0.05000001	          0.09751981	          0.11575470	          0.12509483	          0.34562210	          0.34940814	          0.26247424	          0.68492685	          0.66999078	          0.25028746	          0.11696184	          0.05000001	          0.05000004	
